<?xml version="1.0" encoding="utf-8"?>
<!-- Generator: Adobe Illustrator 16.0.0, SVG Export Plug-In . SVG Version: 6.00 Build 0)  -->
<!DOCTYPE svg PUBLIC "-//W3C//DTD SVG 1.1//EN" "http://www.w3.org/Graphics/SVG/1.1/DTD/svg11.dtd">
<svg version="1.1" id="Layer_1" xmlns="http://www.w3.org/2000/svg" xmlns:xlink="http://www.w3.org/1999/xlink" x="0px" y="0px"
	 width="271.054px" height="103.379px" viewBox="0 0 271.054 103.379" enable-background="new 0 0 271.054 103.379"
	 xml:space="preserve">
<g>
	<g>
		<path fill="#5D5D5D" d="M8.195,96.587l-2.48-12.893h1.663l1.495,7.687c0.275,1.396,0.454,2.521,0.536,3.377
			c0.539-1.103,0.981-1.976,1.328-2.621l4.6-8.442h1.776l-7.071,12.893H8.195z"/>
		<path fill="#5D5D5D" d="M16.595,96.587l1.952-9.34h1.592l-1.952,9.34H16.595z M19.84,86.112l-1.715-2.418h1.935l1.021,2.418H19.84
			z"/>
		<path fill="#5D5D5D" d="M32.548,93.184l1.592,0.167c-0.399,1.167-0.967,2.033-1.702,2.599c-0.736,0.566-1.573,0.849-2.511,0.849
			c-1.015,0-1.837-0.328-2.467-0.985c-0.631-0.656-0.945-1.574-0.945-2.752c0-1.021,0.202-2.023,0.606-3.008
			c0.404-0.985,0.983-1.734,1.737-2.247c0.753-0.513,1.613-0.77,2.581-0.77c1.003,0,1.797,0.283,2.383,0.849
			c0.587,0.565,0.88,1.314,0.88,2.247l-1.565,0.105c-0.006-0.592-0.178-1.056-0.515-1.39s-0.781-0.501-1.332-0.501
			c-0.64,0-1.193,0.202-1.662,0.606c-0.47,0.404-0.837,1.019-1.104,1.843c-0.267,0.823-0.399,1.616-0.399,2.379
			c0,0.797,0.176,1.396,0.527,1.794s0.786,0.598,1.302,0.598s1.01-0.196,1.481-0.589C31.907,94.585,32.277,93.986,32.548,93.184z"/>
		<path fill="#5D5D5D" d="M35.389,93.043c0-1.823,0.536-3.333,1.609-4.529c0.885-0.985,2.046-1.478,3.482-1.478
			c1.126,0,2.033,0.352,2.722,1.055c0.689,0.704,1.033,1.654,1.033,2.85c0,1.073-0.217,2.071-0.65,2.995
			c-0.434,0.923-1.051,1.631-1.852,2.124c-0.8,0.492-1.643,0.738-2.528,0.738c-0.727,0-1.388-0.155-1.983-0.466
			c-0.595-0.311-1.05-0.751-1.363-1.319S35.389,93.787,35.389,93.043z M36.98,92.885c0,0.879,0.211,1.546,0.633,2
			c0.422,0.455,0.959,0.682,1.609,0.682c0.34,0,0.678-0.068,1.012-0.206s0.645-0.348,0.932-0.629s0.532-0.603,0.734-0.963
			c0.202-0.361,0.365-0.749,0.488-1.166c0.182-0.58,0.272-1.137,0.272-1.671c0-0.844-0.212-1.499-0.638-1.965
			c-0.425-0.467-0.96-0.699-1.604-0.699c-0.499,0-0.953,0.118-1.363,0.355s-0.781,0.585-1.112,1.043
			c-0.332,0.457-0.575,0.989-0.73,1.596S36.98,92.409,36.98,92.885z M37.64,99.445l0.378-1.803h1.803l-0.387,1.803H37.64z
			 M38.141,86.112l2.331-2.418h1.759l1.091,2.418h-1.39l-0.704-1.565l-1.451,1.565H38.141z"/>
		<path fill="#5D5D5D" d="M45.124,96.587l1.953-9.34h1.442l-0.344,1.627c0.628-0.639,1.214-1.105,1.76-1.398
			c0.545-0.293,1.102-0.439,1.671-0.439c0.756,0,1.35,0.205,1.78,0.615c0.432,0.411,0.646,0.959,0.646,1.645
			c0,0.347-0.076,0.892-0.229,1.636l-1.188,5.655h-1.592l1.24-5.919c0.123-0.574,0.185-0.999,0.185-1.275
			c0-0.311-0.106-0.563-0.321-0.756c-0.214-0.193-0.522-0.29-0.928-0.29c-0.814,0-1.54,0.293-2.177,0.879
			c-0.636,0.587-1.104,1.592-1.402,3.017l-0.906,4.345H45.124z"/>
		<path fill="#5D5D5D" d="M55.053,97.432l1.609,0.149c-0.012,0.363,0.032,0.636,0.132,0.817s0.259,0.322,0.476,0.422
			c0.287,0.129,0.659,0.194,1.116,0.194c0.962,0,1.654-0.25,2.076-0.748c0.275-0.334,0.53-1.062,0.765-2.181l0.158-0.757
			c-0.826,0.839-1.706,1.258-2.638,1.258c-0.944,0-1.734-0.348-2.37-1.042c-0.637-0.695-0.954-1.679-0.954-2.951
			c0-1.049,0.25-2.014,0.752-2.893c0.501-0.88,1.098-1.544,1.789-1.992c0.692-0.449,1.404-0.673,2.138-0.673
			c1.225,0,2.169,0.58,2.831,1.741l0.317-1.53h1.46l-1.883,9.015c-0.205,0.99-0.475,1.763-0.809,2.317
			c-0.334,0.554-0.799,0.983-1.395,1.288c-0.595,0.305-1.282,0.457-2.062,0.457c-0.751,0-1.397-0.097-1.939-0.29
			c-0.543-0.193-0.947-0.477-1.214-0.849s-0.4-0.799-0.4-1.279C55.009,97.76,55.023,97.602,55.053,97.432z M57.041,92.453
			c0,0.64,0.062,1.12,0.185,1.442c0.176,0.452,0.427,0.796,0.752,1.033c0.325,0.238,0.688,0.356,1.086,0.356
			c0.521,0,1.041-0.183,1.557-0.55c0.516-0.366,0.934-0.934,1.253-1.701c0.319-0.769,0.479-1.501,0.479-2.199
			c0-0.768-0.213-1.379-0.638-1.833c-0.425-0.455-0.951-0.682-1.578-0.682c-0.388,0-0.763,0.104-1.126,0.312
			c-0.363,0.209-0.702,0.525-1.016,0.95c-0.314,0.425-0.552,0.934-0.713,1.525C57.121,91.7,57.041,92.148,57.041,92.453z"/>
		<path fill="#5D5D5D" d="M78.298,85.866h-2.867l0.255-1.179h2.858l0.211-0.993h1.583l-0.202,0.993h1.188l-0.256,1.179H79.89
			l-2.243,10.721h-1.469l0.281-1.354c-0.908,1.044-1.861,1.565-2.857,1.565c-0.88,0-1.614-0.326-2.203-0.98
			c-0.59-0.653-0.884-1.602-0.884-2.845c0-1.149,0.235-2.193,0.708-3.131c0.472-0.938,1.055-1.641,1.75-2.106
			c0.694-0.467,1.399-0.699,2.115-0.699c1.148,0,2.02,0.56,2.611,1.68L78.298,85.866z M72.098,92.673
			c0,0.651,0.064,1.164,0.193,1.539c0.129,0.376,0.349,0.688,0.659,0.938c0.311,0.249,0.684,0.373,1.117,0.373
			c0.721,0,1.375-0.375,1.961-1.125c0.786-0.997,1.179-2.229,1.179-3.694c0-0.738-0.193-1.316-0.58-1.732
			c-0.388-0.416-0.868-0.624-1.442-0.624c-0.394,0-0.746,0.085-1.061,0.255c-0.313,0.17-0.623,0.456-0.928,0.857
			s-0.564,0.916-0.778,1.543C72.204,91.63,72.098,92.187,72.098,92.673z"/>
		<path fill="#5D5D5D" d="M80.461,93.043c0-1.823,0.536-3.333,1.609-4.529c0.885-0.985,2.046-1.478,3.482-1.478
			c1.126,0,2.033,0.352,2.722,1.055c0.689,0.704,1.033,1.654,1.033,2.85c0,1.073-0.217,2.071-0.65,2.995
			c-0.434,0.923-1.051,1.631-1.852,2.124c-0.8,0.492-1.643,0.738-2.528,0.738c-0.727,0-1.388-0.155-1.983-0.466
			c-0.595-0.311-1.05-0.751-1.363-1.319S80.461,93.787,80.461,93.043z M82.053,92.885c0,0.879,0.211,1.546,0.633,2
			c0.422,0.455,0.959,0.682,1.609,0.682c0.34,0,0.678-0.068,1.012-0.206s0.645-0.348,0.932-0.629s0.532-0.603,0.734-0.963
			c0.202-0.361,0.365-0.749,0.488-1.166c0.182-0.58,0.272-1.137,0.272-1.671c0-0.844-0.212-1.499-0.638-1.965
			c-0.425-0.467-0.96-0.699-1.604-0.699c-0.499,0-0.953,0.118-1.363,0.355s-0.781,0.585-1.112,1.043
			c-0.332,0.457-0.575,0.989-0.73,1.596S82.053,92.409,82.053,92.885z M83.213,86.112l2.331-2.418h1.759l1.091,2.418h-1.39
			L86.3,84.547l-1.451,1.565H83.213z M86.688,82.981l-1.715-2.418h1.935l1.02,2.418H86.688z"/>
		<path fill="#5D5D5D" d="M90.196,96.587l1.953-9.34h1.442l-0.344,1.627c0.628-0.639,1.214-1.105,1.76-1.398
			c0.545-0.293,1.102-0.439,1.671-0.439c0.756,0,1.35,0.205,1.78,0.615c0.432,0.411,0.646,0.959,0.646,1.645
			c0,0.347-0.076,0.892-0.229,1.636l-1.188,5.655h-1.592l1.24-5.919c0.123-0.574,0.185-0.999,0.185-1.275
			c0-0.311-0.106-0.563-0.321-0.756c-0.214-0.193-0.522-0.29-0.928-0.29c-0.814,0-1.54,0.293-2.177,0.879
			c-0.636,0.587-1.104,1.592-1.402,3.017l-0.906,4.345H90.196z"/>
		<path fill="#5D5D5D" d="M100.125,97.432l1.609,0.149c-0.012,0.363,0.032,0.636,0.132,0.817s0.259,0.322,0.476,0.422
			c0.287,0.129,0.659,0.194,1.116,0.194c0.962,0,1.654-0.25,2.076-0.748c0.275-0.334,0.53-1.062,0.765-2.181l0.158-0.757
			c-0.826,0.839-1.706,1.258-2.638,1.258c-0.944,0-1.734-0.348-2.37-1.042c-0.637-0.695-0.954-1.679-0.954-2.951
			c0-1.049,0.25-2.014,0.752-2.893c0.501-0.88,1.098-1.544,1.789-1.992c0.692-0.449,1.404-0.673,2.138-0.673
			c1.225,0,2.169,0.58,2.831,1.741l0.317-1.53h1.46l-1.883,9.015c-0.205,0.99-0.475,1.763-0.809,2.317
			c-0.334,0.554-0.799,0.983-1.395,1.288c-0.595,0.305-1.282,0.457-2.062,0.457c-0.751,0-1.397-0.097-1.939-0.29
			c-0.543-0.193-0.947-0.477-1.214-0.849s-0.4-0.799-0.4-1.279C100.081,97.76,100.096,97.602,100.125,97.432z M102.113,92.453
			c0,0.64,0.062,1.12,0.185,1.442c0.176,0.452,0.427,0.796,0.752,1.033c0.325,0.238,0.688,0.356,1.086,0.356
			c0.521,0,1.041-0.183,1.557-0.55c0.516-0.366,0.934-0.934,1.253-1.701c0.319-0.769,0.479-1.501,0.479-2.199
			c0-0.768-0.213-1.379-0.638-1.833c-0.425-0.455-0.951-0.682-1.578-0.682c-0.388,0-0.763,0.104-1.126,0.312
			c-0.363,0.209-0.702,0.525-1.016,0.95c-0.314,0.425-0.552,0.934-0.713,1.525C102.193,91.7,102.113,92.148,102.113,92.453z"/>
		<path fill="#5D5D5D" d="M121.682,93.184l1.592,0.167c-0.399,1.167-0.967,2.033-1.702,2.599c-0.736,0.566-1.573,0.849-2.511,0.849
			c-1.015,0-1.837-0.328-2.467-0.985c-0.631-0.656-0.945-1.574-0.945-2.752c0-1.021,0.202-2.023,0.606-3.008
			c0.404-0.985,0.983-1.734,1.737-2.247c0.753-0.513,1.613-0.77,2.581-0.77c1.003,0,1.797,0.283,2.383,0.849
			c0.587,0.565,0.88,1.314,0.88,2.247l-1.565,0.105c-0.006-0.592-0.178-1.056-0.515-1.39s-0.781-0.501-1.332-0.501
			c-0.64,0-1.193,0.202-1.662,0.606c-0.47,0.404-0.837,1.019-1.104,1.843c-0.267,0.823-0.399,1.616-0.399,2.379
			c0,0.797,0.176,1.396,0.527,1.794s0.786,0.598,1.302,0.598s1.01-0.196,1.481-0.589C121.041,94.585,121.411,93.986,121.682,93.184z
			"/>
		<path fill="#5D5D5D" d="M124.24,96.587l2.691-12.893h1.592l-1.028,4.951c0.592-0.574,1.143-0.986,1.653-1.235
			c0.51-0.25,1.034-0.374,1.574-0.374c0.773,0,1.374,0.203,1.803,0.611c0.428,0.407,0.642,0.945,0.642,1.613
			c0,0.329-0.094,0.933-0.281,1.812l-1.152,5.515h-1.592l1.188-5.655c0.17-0.82,0.255-1.337,0.255-1.548
			c0-0.305-0.105-0.554-0.316-0.747s-0.516-0.29-0.915-0.29c-0.574,0-1.122,0.15-1.645,0.452c-0.521,0.303-0.931,0.716-1.227,1.24
			c-0.296,0.525-0.567,1.371-0.813,2.537l-0.836,4.011H124.24z"/>
		<path fill="#5D5D5D" d="M134.539,93.043c0-1.823,0.536-3.333,1.609-4.529c0.885-0.985,2.046-1.478,3.482-1.478
			c1.126,0,2.033,0.352,2.722,1.055c0.689,0.704,1.033,1.654,1.033,2.85c0,1.073-0.217,2.071-0.65,2.995
			c-0.434,0.923-1.051,1.631-1.852,2.124c-0.8,0.492-1.643,0.738-2.528,0.738c-0.727,0-1.388-0.155-1.983-0.466
			c-0.595-0.311-1.05-0.751-1.363-1.319S134.539,93.787,134.539,93.043z M136.131,92.885c0,0.879,0.211,1.546,0.633,2
			c0.422,0.455,0.959,0.682,1.609,0.682c0.34,0,0.678-0.068,1.012-0.206s0.645-0.348,0.932-0.629s0.532-0.603,0.734-0.963
			c0.202-0.361,0.365-0.749,0.488-1.166c0.182-0.58,0.272-1.137,0.272-1.671c0-0.844-0.212-1.499-0.638-1.965
			c-0.425-0.467-0.96-0.699-1.604-0.699c-0.499,0-0.953,0.118-1.363,0.355s-0.781,0.585-1.112,1.043
			c-0.332,0.457-0.575,0.989-0.73,1.596S136.131,92.409,136.131,92.885z"/>
		<path fill="#5D5D5D" d="M152.999,95.294l-0.264,1.302c-0.382,0.1-0.751,0.149-1.108,0.149c-0.633,0-1.138-0.155-1.513-0.466
			c-0.281-0.234-0.422-0.555-0.422-0.959c0-0.205,0.076-0.677,0.229-1.416l1.135-5.426h-1.258l0.255-1.231h1.258l0.483-2.296
			l1.82-1.099l-0.712,3.395h1.565l-0.264,1.231h-1.557l-1.082,5.162c-0.135,0.657-0.202,1.05-0.202,1.179
			c0,0.188,0.054,0.331,0.162,0.431s0.286,0.149,0.532,0.149C152.409,95.399,152.724,95.364,152.999,95.294z"/>
		<path fill="#5D5D5D" d="M154.282,96.587l2.691-12.893h1.592l-1.028,4.951c0.592-0.574,1.143-0.986,1.653-1.235
			c0.51-0.25,1.034-0.374,1.574-0.374c0.773,0,1.374,0.203,1.803,0.611c0.428,0.407,0.642,0.945,0.642,1.613
			c0,0.329-0.094,0.933-0.281,1.812l-1.152,5.515h-1.592l1.188-5.655c0.17-0.82,0.255-1.337,0.255-1.548
			c0-0.305-0.105-0.554-0.316-0.747s-0.516-0.29-0.915-0.29c-0.574,0-1.122,0.15-1.645,0.452c-0.521,0.303-0.931,0.716-1.227,1.24
			c-0.296,0.525-0.567,1.371-0.813,2.537l-0.836,4.011H154.282z"/>
		<path fill="#5D5D5D" d="M170.677,94.898c-1.12,1.267-2.267,1.899-3.439,1.899c-0.721,0-1.303-0.206-1.745-0.62
			c-0.443-0.413-0.664-0.919-0.664-1.517c0-0.393,0.1-1.067,0.299-2.023l1.126-5.391h1.592l-1.249,5.972
			c-0.105,0.498-0.158,0.885-0.158,1.161c0,0.352,0.106,0.626,0.32,0.822c0.215,0.196,0.529,0.294,0.946,0.294
			c0.445,0,0.881-0.108,1.306-0.325s0.791-0.51,1.1-0.879c0.308-0.37,0.559-0.807,0.752-1.311c0.129-0.322,0.278-0.889,0.448-1.697
			l0.844-4.037h1.593l-1.953,9.34h-1.469L170.677,94.898z"/>
		<path fill="#5D5D5D" d="M181.177,93.412l1.548,0.158c-0.223,0.769-0.734,1.498-1.535,2.189c-0.8,0.692-1.754,1.038-2.862,1.038
			c-0.692,0-1.326-0.16-1.904-0.479c-0.577-0.319-1.017-0.784-1.319-1.394c-0.302-0.609-0.452-1.305-0.452-2.084
			c0-1.021,0.235-2.01,0.708-2.969c0.472-0.958,1.083-1.671,1.833-2.137c0.751-0.467,1.563-0.699,2.437-0.699
			c1.113,0,2.004,0.346,2.669,1.037c0.665,0.692,0.998,1.637,0.998,2.832c0,0.458-0.041,0.927-0.123,1.407h-6.877
			c-0.023,0.182-0.035,0.347-0.035,0.493c0,0.873,0.2,1.54,0.603,2c0.401,0.461,0.893,0.69,1.473,0.69
			c0.545,0,1.082-0.179,1.609-0.536S180.884,94.086,181.177,93.412z M176.551,91.099h5.241c0.006-0.164,0.009-0.281,0.009-0.352
			c0-0.797-0.199-1.408-0.598-1.833c-0.398-0.426-0.912-0.638-1.539-0.638c-0.681,0-1.301,0.234-1.86,0.703
			S176.826,90.155,176.551,91.099z M177.633,86.112l2.33-2.418h1.759l1.091,2.418h-1.39l-0.703-1.565l-1.451,1.565H177.633z"/>
		<path fill="#5D5D5D" d="M189.338,96.587l1.953-9.34h1.442l-0.344,1.627c0.628-0.639,1.214-1.105,1.76-1.398
			c0.545-0.293,1.102-0.439,1.671-0.439c0.756,0,1.35,0.205,1.78,0.615c0.432,0.411,0.646,0.959,0.646,1.645
			c0,0.347-0.076,0.892-0.229,1.636l-1.188,5.655h-1.592l1.24-5.919c0.123-0.574,0.185-0.999,0.185-1.275
			c0-0.311-0.106-0.563-0.321-0.756c-0.214-0.193-0.522-0.29-0.928-0.29c-0.814,0-1.54,0.293-2.177,0.879
			c-0.636,0.587-1.104,1.592-1.402,3.017l-0.906,4.345H189.338z"/>
		<path fill="#5D5D5D" d="M199.355,96.587l2.691-12.893h1.592l-1.028,4.951c0.592-0.574,1.143-0.986,1.653-1.235
			c0.51-0.25,1.034-0.374,1.574-0.374c0.773,0,1.374,0.203,1.803,0.611c0.428,0.407,0.642,0.945,0.642,1.613
			c0,0.329-0.094,0.933-0.281,1.812l-1.152,5.515h-1.592l1.188-5.655c0.17-0.82,0.255-1.337,0.255-1.548
			c0-0.305-0.105-0.554-0.316-0.747s-0.516-0.29-0.915-0.29c-0.574,0-1.122,0.15-1.645,0.452c-0.521,0.303-0.931,0.716-1.227,1.24
			c-0.296,0.525-0.567,1.371-0.813,2.537l-0.836,4.011H199.355z"/>
		<path fill="#5D5D5D" d="M215.669,95.426c-0.551,0.476-1.081,0.822-1.592,1.042c-0.51,0.221-1.055,0.33-1.636,0.33
			c-0.861,0-1.557-0.253-2.084-0.761c-0.527-0.507-0.791-1.156-0.791-1.948c0-0.521,0.118-0.983,0.355-1.385
			s0.553-0.724,0.945-0.968c0.394-0.243,0.874-0.417,1.442-0.522c0.357-0.071,1.036-0.127,2.036-0.168s1.717-0.146,2.15-0.316
			c0.123-0.434,0.185-0.794,0.185-1.082c0-0.369-0.135-0.659-0.404-0.87c-0.369-0.293-0.909-0.439-1.618-0.439
			c-0.669,0-1.216,0.147-1.641,0.443c-0.425,0.297-0.734,0.717-0.928,1.263l-1.609-0.141c0.328-0.927,0.849-1.636,1.562-2.129
			c0.712-0.492,1.61-0.738,2.695-0.738c1.155,0,2.069,0.275,2.744,0.826c0.516,0.411,0.773,0.944,0.773,1.601
			c0,0.499-0.073,1.076-0.22,1.732l-0.519,2.322c-0.164,0.738-0.246,1.34-0.246,1.803c0,0.293,0.064,0.716,0.193,1.267h-1.609
			C215.767,96.282,215.704,95.896,215.669,95.426z M216.259,91.855c-0.223,0.088-0.462,0.155-0.717,0.202s-0.682,0.097-1.279,0.149
			c-0.927,0.082-1.581,0.187-1.962,0.313s-0.668,0.327-0.861,0.603s-0.29,0.58-0.29,0.914c0,0.446,0.153,0.813,0.461,1.1
			c0.309,0.287,0.746,0.431,1.315,0.431c0.527,0,1.034-0.139,1.521-0.417c0.486-0.279,0.87-0.667,1.151-1.166
			C215.881,93.485,216.101,92.776,216.259,91.855z M215.511,86.112l-1.715-2.418h1.936l1.02,2.418H215.511z"/>
		<path fill="#5D5D5D" d="M230.771,94.898c-1.12,1.267-2.267,1.899-3.439,1.899c-0.721,0-1.303-0.206-1.745-0.62
			c-0.443-0.413-0.664-0.919-0.664-1.517c0-0.393,0.1-1.067,0.299-2.023l1.126-5.391h1.592l-1.249,5.972
			c-0.105,0.498-0.158,0.885-0.158,1.161c0,0.352,0.106,0.626,0.32,0.822c0.215,0.196,0.529,0.294,0.946,0.294
			c0.445,0,0.881-0.108,1.306-0.325s0.791-0.51,1.1-0.879c0.308-0.37,0.559-0.807,0.752-1.311c0.129-0.322,0.278-0.889,0.448-1.697
			l0.844-4.037h1.593l-1.953,9.34h-1.469L230.771,94.898z"/>
		<path fill="#5D5D5D" d="M233.813,100.192l0.097-1.495c0.328,0.094,0.647,0.141,0.959,0.141c0.322,0,0.583-0.073,0.782-0.22
			c0.258-0.193,0.539-0.557,0.845-1.09l0.51-0.915l-1.557-9.366h1.565l0.704,4.723c0.141,0.933,0.261,1.864,0.36,2.797l4.177-7.52
			h1.663l-5.954,10.58c-0.575,1.031-1.085,1.715-1.53,2.049c-0.446,0.334-0.959,0.501-1.539,0.501
			C234.524,100.377,234.164,100.315,233.813,100.192z"/>
		<path fill="#5D5D5D" d="M252.142,95.294l-0.264,1.302c-0.382,0.1-0.751,0.149-1.108,0.149c-0.633,0-1.138-0.155-1.513-0.466
			c-0.281-0.234-0.422-0.555-0.422-0.959c0-0.205,0.076-0.677,0.229-1.416l1.135-5.426h-1.258l0.255-1.231h1.258l0.483-2.296
			l1.82-1.099l-0.712,3.395h1.565l-0.264,1.231h-1.557l-1.082,5.162c-0.135,0.657-0.202,1.05-0.202,1.179
			c0,0.188,0.054,0.331,0.162,0.431s0.286,0.149,0.532,0.149C251.552,95.399,251.866,95.364,252.142,95.294z"/>
		<path fill="#5D5D5D" d="M253.927,96.587l1.952-9.34h1.592l-1.952,9.34H253.927z M255.457,86.112l1.653-2.418h2.005l-2.339,2.418
			H255.457z"/>
		<path fill="#5D5D5D" d="M258.429,96.587l1.953-9.34h1.442l-0.344,1.627c0.628-0.639,1.214-1.105,1.76-1.398
			c0.545-0.293,1.102-0.439,1.671-0.439c0.756,0,1.35,0.205,1.78,0.615c0.432,0.411,0.646,0.959,0.646,1.645
			c0,0.347-0.076,0.892-0.229,1.636l-1.188,5.655h-1.592l1.24-5.919c0.123-0.574,0.185-0.999,0.185-1.275
			c0-0.311-0.106-0.563-0.321-0.756c-0.214-0.193-0.522-0.29-0.928-0.29c-0.814,0-1.54,0.293-2.177,0.879
			c-0.636,0.587-1.104,1.592-1.402,3.017l-0.906,4.345H258.429z"/>
	</g>
	<g>
		<rect x="63.997" y="22.522" fill="#38A345" width="4.052" height="4.052"/>
		<rect x="69.231" y="22.522" fill="#38A345" width="4.052" height="4.052"/>
		<rect x="63.997" y="28.2" fill="#38A345" width="4.052" height="4.052"/>
		<rect x="69.231" y="28.2" fill="#38A345" width="4.052" height="4.052"/>
	</g>
	<polygon fill="#38A345" points="71.521,43.324 3.231,43.324 5.667,41.596 71.521,41.596 	"/>
	<polygon fill="#38A345" points="64.023,4.585 67.479,8.355 13.6,42.757 4.646,42.284 	"/>
	<polygon fill="#38A345" points="45.174,14.48 34.806,20.608 34.806,6.94 45.174,6.94 	"/>
	<polygon fill="#38A345" points="68.422,3.484 116.175,16.837 151.361,42.599 122.617,42.599 	"/>
	<polygon fill="#38A345" points="123.716,18.723 146.65,35.687 157.331,34.744 173.513,13.695 	"/>
	<polygon fill="#38A345" points="172.098,22.021 175.238,18.408 193.617,43.227 167.699,43.227 166.992,42.521 187.178,42.521 	"/>
	<g>
		<path fill="#055699" d="M38.83,78.774c-0.9,0-1.672-0.319-2.291-0.949c-0.614-0.625-0.926-1.396-0.926-2.291V62.83
			c0-0.598-0.112-1.146-0.341-1.679c-0.23-0.535-0.547-1.01-0.943-1.412c-0.394-0.4-0.867-0.723-1.405-0.958
			c-0.532-0.231-1.113-0.349-1.73-0.349c-0.601,0-1.171,0.117-1.692,0.348c-0.538,0.237-1.016,0.561-1.418,0.956
			c-0.4,0.394-0.718,0.861-0.946,1.393c-0.228,0.531-0.34,1.088-0.34,1.701v12.704c0,0.898-0.317,1.672-0.943,2.297
			c-0.625,0.626-1.39,0.943-2.273,0.943c-0.898,0-1.673-0.317-2.297-0.943c-0.627-0.624-0.942-1.398-0.942-2.297V62.83
			c0-0.61-0.114-1.163-0.349-1.693c-0.236-0.536-0.558-1.009-0.953-1.403c-0.396-0.396-0.868-0.717-1.404-0.953
			c-0.522-0.23-1.092-0.348-1.692-0.348c-0.603,0-1.176,0.113-1.699,0.341c-0.532,0.228-1.007,0.548-1.408,0.948
			c-0.399,0.4-0.719,0.874-0.949,1.407c-0.228,0.531-0.339,1.088-0.339,1.701v12.704c0,0.898-0.318,1.673-0.945,2.297
			c-0.624,0.626-1.389,0.943-2.272,0.943c-0.898,0-1.672-0.317-2.297-0.943c-0.626-0.624-0.942-1.398-0.942-2.297V55.191
			c0-0.883,0.316-1.648,0.942-2.273c0.625-0.625,1.392-0.941,2.274-0.941c0.711,0,1.353,0.202,1.908,0.604
			c0.252,0.181,0.468,0.391,0.65,0.627c1.526-0.818,3.23-1.23,5.077-1.23c1.609,0,3.146,0.322,4.564,0.96
			c1.141,0.513,2.175,1.236,3.088,2.163c2.11-2.073,4.662-3.123,7.599-3.123c1.472,0,2.889,0.29,4.208,0.864
			c1.312,0.572,2.472,1.357,3.447,2.333c0.977,0.977,1.761,2.134,2.332,3.446c0.575,1.32,0.867,2.738,0.867,4.21v12.704
			c0,0.898-0.318,1.673-0.944,2.297C40.479,78.457,39.715,78.774,38.83,78.774z"/>
		<path fill="#055699" d="M41.153,75.534c0,0.655-0.229,1.211-0.682,1.663c-0.454,0.455-1.002,0.682-1.642,0.682
			c-0.655,0-1.205-0.227-1.653-0.682c-0.446-0.452-0.669-1.008-0.669-1.663V62.83c0-0.716-0.138-1.393-0.413-2.033
			c-0.275-0.64-0.65-1.201-1.127-1.686c-0.478-0.484-1.038-0.866-1.686-1.15c-0.648-0.282-1.344-0.424-2.089-0.424
			c-0.729,0-1.414,0.142-2.054,0.424c-0.641,0.284-1.203,0.662-1.685,1.14c-0.484,0.476-0.864,1.035-1.14,1.675
			s-0.413,1.324-0.413,2.055v12.704c0,0.655-0.228,1.211-0.682,1.663c-0.454,0.455-1.001,0.682-1.641,0.682
			c-0.656,0-1.21-0.227-1.663-0.682c-0.456-0.452-0.682-1.008-0.682-1.663V62.83c0-0.73-0.143-1.415-0.425-2.055
			s-0.662-1.199-1.139-1.675c-0.478-0.478-1.035-0.855-1.674-1.14c-0.641-0.282-1.325-0.424-2.056-0.424
			c-0.729,0-1.413,0.138-2.053,0.413c-0.642,0.275-1.203,0.655-1.687,1.139c-0.484,0.484-0.863,1.047-1.139,1.687
			s-0.413,1.324-0.413,2.055v12.704c0,0.655-0.228,1.211-0.681,1.663c-0.455,0.455-1.002,0.682-1.642,0.682
			c-0.655,0-1.21-0.227-1.664-0.682c-0.453-0.452-0.68-1.008-0.68-1.663V55.191c0-0.639,0.227-1.186,0.68-1.641
			c0.454-0.454,1-0.68,1.642-0.68c0.522,0,0.982,0.145,1.385,0.435c0.401,0.29,0.677,0.674,0.826,1.149
			c1.592-1.056,3.4-1.584,5.425-1.584c1.488,0,2.889,0.293,4.199,0.882c1.309,0.589,2.457,1.478,3.438,2.668
			c2.068-2.366,4.605-3.55,7.613-3.55c1.355,0,2.64,0.264,3.853,0.791c1.213,0.529,2.269,1.244,3.171,2.144
			c0.899,0.901,1.614,1.959,2.144,3.172c0.528,1.213,0.793,2.497,0.793,3.853V75.534z"/>
		<path fill="#055699" d="M66.094,78.774c-0.919,0-1.692-0.317-2.296-0.943c-0.232-0.241-0.42-0.502-0.565-0.783
			c-0.786,0.487-1.606,0.869-2.449,1.137c-1.228,0.391-2.573,0.59-4,0.59c-1.711,0-3.349-0.337-4.869-1.003
			c-1.511-0.659-2.85-1.567-3.981-2.698c-1.132-1.132-2.039-2.472-2.699-3.98c-0.665-1.523-1.002-3.161-1.002-4.87V55.191
			c0-0.883,0.318-1.648,0.945-2.273c0.624-0.625,1.396-0.941,2.295-0.941c0.883,0,1.648,0.316,2.274,0.941
			c0.626,0.626,0.942,1.392,0.942,2.273v11.031c0,0.842,0.161,1.638,0.475,2.371c0.317,0.739,0.757,1.393,1.308,1.942
			c0.548,0.549,1.201,0.988,1.941,1.307c0.731,0.314,1.528,0.475,2.371,0.475c0.826,0,1.617-0.16,2.348-0.474
			c0.739-0.318,1.397-0.762,1.954-1.318c0.558-0.557,1-1.212,1.318-1.945c0.314-0.725,0.474-1.517,0.474-2.357V55.191
			c0-0.883,0.317-1.648,0.942-2.273c0.626-0.625,1.397-0.941,2.298-0.941c0.883,0,1.646,0.316,2.273,0.941
			c0.627,0.626,0.942,1.392,0.942,2.273v20.366c0,0.883-0.315,1.648-0.942,2.273C67.764,78.457,66.992,78.774,66.094,78.774z"/>
		<path fill="#055699" d="M66.094,77.879c-0.67,0-1.221-0.224-1.653-0.67c-0.431-0.446-0.654-0.989-0.669-1.629
			c-1.026,0.803-2.113,1.389-3.259,1.751c-1.147,0.366-2.391,0.548-3.729,0.548c-1.594,0-3.098-0.309-4.511-0.926
			c-1.414-0.618-2.65-1.455-3.706-2.513c-1.058-1.057-1.896-2.292-2.513-3.707c-0.617-1.413-0.927-2.917-0.927-4.511V55.191
			c0-0.639,0.228-1.186,0.681-1.641c0.455-0.454,1.009-0.68,1.664-0.68c0.641,0,1.187,0.226,1.642,0.68
			c0.453,0.455,0.68,1.002,0.68,1.641v11.031c0,0.969,0.183,1.875,0.549,2.725c0.364,0.849,0.862,1.589,1.495,2.223
			c0.633,0.632,1.373,1.131,2.222,1.495c0.849,0.365,1.757,0.547,2.725,0.547c0.952,0,1.854-0.182,2.701-0.547
			c0.848-0.364,1.593-0.868,2.234-1.508c0.638-0.64,1.142-1.38,1.506-2.222c0.364-0.841,0.547-1.744,0.547-2.713V55.191
			c0-0.639,0.228-1.186,0.682-1.641c0.453-0.454,1.009-0.68,1.664-0.68c0.64,0,1.187,0.226,1.64,0.68
			c0.453,0.455,0.682,1.002,0.682,1.641v20.366c0,0.64-0.229,1.188-0.682,1.64C67.304,77.652,66.748,77.879,66.094,77.879z"/>
		<path fill="#055699" d="M121.491,78.774c-0.896,0-1.671-0.317-2.295-0.943c-0.627-0.624-0.944-1.398-0.944-2.297V64.526
			c0-0.823-0.162-1.612-0.482-2.343c-0.325-0.742-0.769-1.397-1.319-1.948s-1.208-0.996-1.949-1.32
			c-0.73-0.32-1.519-0.482-2.343-0.482c-0.84,0-1.633,0.159-2.356,0.472c-0.733,0.319-1.389,0.764-1.944,1.32
			c-0.558,0.557-0.999,1.213-1.317,1.953c-0.315,0.732-0.475,1.523-0.475,2.349v11.008c0,0.898-0.318,1.672-0.945,2.297
			c-0.624,0.626-1.388,0.943-2.273,0.943c-0.897,0-1.671-0.317-2.295-0.943c-0.627-0.624-0.942-1.398-0.942-2.297V55.215
			c0-0.881,0.315-1.646,0.938-2.278c0.626-0.639,1.4-0.96,2.3-0.96c0.886,0,1.652,0.321,2.278,0.958
			c0.24,0.244,0.435,0.504,0.582,0.78c1.89-1.155,4.054-1.738,6.451-1.738c1.679,0,3.297,0.333,4.812,0.989
			c1.5,0.649,2.842,1.549,3.988,2.669c1.148,1.127,2.069,2.468,2.738,3.988c0.672,1.528,1.014,3.178,1.014,4.903v11.008
			c0,0.898-0.317,1.672-0.944,2.297C123.142,78.457,122.375,78.774,121.491,78.774z"/>
		<path fill="#055699" d="M105.171,55.171c1.979-1.533,4.308-2.3,6.987-2.3c1.564,0,3.048,0.305,4.456,0.914
			c1.404,0.611,2.644,1.441,3.717,2.489c1.07,1.052,1.92,2.286,2.545,3.708c0.626,1.422,0.939,2.937,0.939,4.544v11.008
			c0,0.655-0.228,1.211-0.682,1.663c-0.455,0.455-1.001,0.682-1.643,0.682c-0.654,0-1.208-0.227-1.663-0.682
			c-0.454-0.452-0.682-1.008-0.682-1.663V64.526c0-0.954-0.185-1.854-0.558-2.702c-0.373-0.85-0.874-1.589-1.508-2.222
			c-0.631-0.633-1.371-1.135-2.222-1.507c-0.847-0.372-1.749-0.559-2.701-0.559c-0.968,0-1.872,0.184-2.713,0.546
			c-0.84,0.366-1.581,0.868-2.222,1.509c-0.641,0.64-1.142,1.383-1.507,2.232c-0.366,0.849-0.546,1.748-0.546,2.702v11.008
			c0,0.655-0.229,1.211-0.682,1.663c-0.456,0.455-1.002,0.682-1.643,0.682c-0.655,0-1.208-0.227-1.662-0.682
			c-0.455-0.452-0.681-1.008-0.681-1.663V55.215c0-0.64,0.226-1.191,0.681-1.65c0.454-0.462,1.007-0.693,1.662-0.693
			c0.641,0,1.187,0.231,1.643,0.693C104.942,54.023,105.171,54.56,105.171,55.171z"/>
		<path fill="#055699" d="M148.288,78.774c-0.9,0-1.674-0.317-2.298-0.943c-0.627-0.624-0.942-1.398-0.942-2.297V64.526
			c0-0.823-0.164-1.612-0.484-2.343c-0.325-0.742-0.769-1.397-1.319-1.948s-1.208-0.996-1.949-1.32
			c-0.729-0.32-1.517-0.482-2.34-0.482c-0.843,0-1.636,0.159-2.357,0.472c-0.733,0.319-1.389,0.764-1.946,1.32
			c-0.556,0.557-1,1.213-1.317,1.953c-0.315,0.732-0.475,1.523-0.475,2.349v11.008c0,0.898-0.315,1.672-0.942,2.297
			c-0.627,0.626-1.392,0.943-2.274,0.943c-0.899,0-1.671-0.317-2.298-0.943c-0.624-0.624-0.941-1.398-0.941-2.297V55.215
			c0-0.881,0.315-1.646,0.938-2.278c0.626-0.639,1.4-0.96,2.302-0.96c0.886,0,1.652,0.321,2.279,0.958
			c0.239,0.244,0.432,0.504,0.579,0.78c1.889-1.155,4.054-1.738,6.454-1.738c1.678,0,3.297,0.333,4.809,0.989
			c1.5,0.649,2.841,1.549,3.987,2.669c1.151,1.127,2.07,2.468,2.739,3.988c0.672,1.528,1.014,3.178,1.014,4.903v11.008
			c0,0.898-0.317,1.672-0.942,2.297C149.936,78.457,149.171,78.774,148.288,78.774z"/>
		<path fill="#055699" d="M131.964,55.171c1.98-1.533,4.311-2.3,6.991-2.3c1.562,0,3.045,0.305,4.452,0.914
			c1.408,0.611,2.646,1.441,3.718,2.489c1.072,1.052,1.923,2.286,2.547,3.708s0.938,2.937,0.938,4.544v11.008
			c0,0.655-0.228,1.211-0.682,1.663c-0.453,0.455-1.001,0.682-1.64,0.682c-0.655,0-1.211-0.227-1.664-0.682
			c-0.456-0.452-0.682-1.008-0.682-1.663V64.526c0-0.954-0.188-1.854-0.558-2.702c-0.372-0.85-0.876-1.589-1.507-2.222
			c-0.634-0.633-1.375-1.135-2.222-1.507c-0.851-0.372-1.75-0.559-2.701-0.559c-0.969,0-1.873,0.184-2.714,0.546
			c-0.842,0.366-1.583,0.868-2.224,1.509c-0.639,0.64-1.142,1.383-1.505,2.232c-0.365,0.849-0.549,1.748-0.549,2.702v11.008
			c0,0.655-0.228,1.211-0.681,1.663c-0.454,0.455-1.002,0.682-1.641,0.682c-0.655,0-1.21-0.227-1.664-0.682
			c-0.453-0.452-0.681-1.008-0.681-1.663V55.215c0-0.64,0.228-1.191,0.681-1.65c0.454-0.462,1.009-0.693,1.664-0.693
			c0.639,0,1.187,0.231,1.641,0.693C131.736,54.023,131.964,54.56,131.964,55.171z"/>
		<path fill="#055699" d="M175.061,78.774c-0.886,0-1.649-0.317-2.276-0.944c-0.625-0.624-0.942-1.397-0.942-2.296V64.57
			c0-0.823-0.161-1.611-0.482-2.343c-0.325-0.74-0.769-1.396-1.321-1.947c-0.551-0.551-1.206-0.996-1.947-1.319
			c-0.73-0.322-1.519-0.484-2.343-0.484c-0.84,0-1.633,0.16-2.356,0.474c-0.733,0.317-1.387,0.763-1.944,1.318
			c-0.558,0.557-0.999,1.214-1.317,1.953c-0.315,0.732-0.475,1.523-0.475,2.349v10.964c0,0.898-0.318,1.672-0.944,2.297
			c-0.625,0.626-1.398,0.943-2.296,0.943c-0.883,0-1.649-0.317-2.273-0.943c-0.627-0.624-0.942-1.398-0.942-2.297V42.066
			c0-0.898,0.315-1.67,0.942-2.297c0.626-0.625,1.391-0.943,2.273-0.943c0.881,0,1.647,0.318,2.271,0.942
			c0.622,0.622,0.947,1.388,0.969,2.277v11.503c1.804-1.017,3.846-1.529,6.093-1.529c1.679,0,3.298,0.334,4.812,0.99
			c1.503,0.651,2.842,1.55,3.988,2.67c1.148,1.127,2.069,2.467,2.736,3.988c0.674,1.528,1.016,3.179,1.016,4.902v10.964
			c-0.021,0.912-0.346,1.678-0.968,2.297C176.71,78.457,175.943,78.774,175.061,78.774z"/>
		<path fill="#055699" d="M158.761,75.534c0,0.655-0.229,1.211-0.682,1.663c-0.456,0.455-1.009,0.682-1.664,0.682
			c-0.641,0-1.187-0.227-1.643-0.682c-0.453-0.452-0.679-1.008-0.679-1.663V42.066c0-0.655,0.226-1.21,0.679-1.663
			c0.456-0.453,1.002-0.682,1.643-0.682c0.639,0,1.185,0.229,1.641,0.682c0.455,0.453,0.688,1.008,0.705,1.663v13.148
			c1.979-1.533,4.308-2.3,6.987-2.3c1.563,0,3.048,0.305,4.456,0.915c1.405,0.611,2.644,1.44,3.717,2.49
			c1.07,1.05,1.92,2.285,2.545,3.707c0.624,1.421,0.938,2.937,0.938,4.543v10.964c-0.015,0.655-0.247,1.211-0.703,1.663
			c-0.453,0.455-0.999,0.682-1.64,0.682c-0.642,0-1.189-0.227-1.643-0.682c-0.454-0.452-0.682-1.008-0.682-1.663V64.57
			c0-0.951-0.185-1.853-0.558-2.701c-0.37-0.849-0.873-1.589-1.508-2.223c-0.633-0.633-1.371-1.134-2.221-1.506
			c-0.848-0.373-1.75-0.558-2.702-0.558c-0.968,0-1.87,0.182-2.713,0.546c-0.84,0.365-1.581,0.867-2.222,1.507
			s-1.142,1.385-1.507,2.233c-0.366,0.849-0.546,1.75-0.546,2.701V75.534z"/>
		<path fill="#055699" d="M203.597,78.774c-0.9,0-1.672-0.317-2.298-0.944c-0.335-0.336-0.584-0.712-0.741-1.126
			c-0.835,0.531-1.718,0.968-2.639,1.302c-1.403,0.509-2.918,0.769-4.506,0.769c-3.682,0-6.869-1.32-9.473-3.925
			c-2.606-2.604-3.926-5.792-3.926-9.476c0-3.683,1.319-6.87,3.926-9.476c2.604-2.603,5.791-3.922,9.473-3.922
			c3.653,0,6.839,1.318,9.474,3.918c2.606,2.61,3.926,5.797,3.926,9.479v10.184c0,0.883-0.315,1.648-0.942,2.273
			C205.243,78.457,204.479,78.774,203.597,78.774z M193.413,58.433c-0.973,0-1.887,0.185-2.72,0.551
			c-0.848,0.369-1.586,0.871-2.203,1.494c-0.617,0.624-1.115,1.369-1.477,2.213c-0.36,0.837-0.543,1.739-0.543,2.684
			c0,0.946,0.183,1.85,0.543,2.684c0.363,0.848,0.859,1.592,1.477,2.214c0.615,0.623,1.355,1.126,2.203,1.496
			c0.833,0.364,1.747,0.55,2.72,0.55c0.959,0,1.868-0.186,2.699-0.55c0.848-0.37,1.59-0.877,2.215-1.507
			c0.626-0.633,1.127-1.378,1.49-2.216c0.356-0.829,0.539-1.726,0.539-2.671c0-0.944-0.183-1.842-0.539-2.67
			c-0.363-0.837-0.864-1.582-1.49-2.215c-0.625-0.63-1.367-1.137-2.215-1.506C195.281,58.617,194.372,58.433,193.413,58.433z"/>
		<path fill="#055699" d="M201.251,75.558v-0.448c-1.115,0.893-2.328,1.579-3.639,2.056s-2.708,0.714-4.199,0.714
			c-3.451,0-6.399-1.221-8.842-3.662c-2.439-2.44-3.662-5.388-3.662-8.843c0-3.453,1.223-6.4,3.662-8.841
			c2.442-2.442,5.391-3.662,8.842-3.662c3.426,0,6.371,1.22,8.845,3.662c2.44,2.44,3.66,5.388,3.66,8.841v10.184
			c0,0.64-0.226,1.188-0.682,1.64c-0.453,0.455-1.001,0.682-1.64,0.682c-0.655,0-1.211-0.227-1.664-0.682
			C201.479,76.745,201.251,76.197,201.251,75.558z M193.413,57.537c-1.102,0-2.129,0.209-3.081,0.625
			c-0.951,0.417-1.777,0.98-2.478,1.687c-0.7,0.707-1.254,1.535-1.664,2.489c-0.411,0.952-0.615,1.966-0.615,3.036
			c0,1.072,0.204,2.084,0.615,3.037c0.41,0.953,0.964,1.784,1.664,2.49s1.526,1.269,2.478,1.687
			c0.952,0.416,1.979,0.624,3.081,0.624c1.088,0,2.108-0.208,3.06-0.624c0.952-0.418,1.783-0.982,2.49-1.698
			c0.707-0.714,1.266-1.544,1.676-2.49c0.408-0.944,0.612-1.953,0.612-3.025c0-1.07-0.204-2.079-0.612-3.025
			c-0.41-0.944-0.969-1.775-1.676-2.489s-1.538-1.28-2.49-1.697C195.521,57.746,194.501,57.537,193.413,57.537z"/>
	</g>
	<g>
		<path fill="#38A345" d="M210.804,76.636c0,0.35-0.123,0.648-0.369,0.895s-0.545,0.369-0.895,0.369
			c-0.351,0-0.648-0.123-0.895-0.369s-0.369-0.545-0.369-0.895c0-0.351,0.123-0.648,0.369-0.895s0.544-0.369,0.895-0.369
			c0.35,0,0.648,0.123,0.895,0.369S210.804,76.285,210.804,76.636z"/>
		<path fill="#38A345" d="M218.513,75.078c0.268,0,0.488,0.088,0.663,0.263c0.176,0.175,0.263,0.396,0.263,0.663
			c0,0.261-0.098,0.489-0.293,0.685c-0.92,0.808-2.003,1.211-3.249,1.211c-1.377,0-2.552-0.486-3.524-1.46
			c-0.974-0.973-1.46-2.147-1.46-3.524s0.486-2.552,1.46-3.524c0.973-0.974,2.147-1.46,3.524-1.46c1.252,0,2.335,0.403,3.249,1.211
			c0.213,0.189,0.32,0.424,0.32,0.703c0,0.267-0.088,0.489-0.263,0.667s-0.396,0.268-0.663,0.268c-0.226,0-0.428-0.071-0.605-0.214
			c-0.303-0.255-0.62-0.448-0.952-0.579c-0.333-0.13-0.694-0.195-1.086-0.195c-0.434,0-0.84,0.082-1.22,0.245
			s-0.712,0.386-0.997,0.667c-0.284,0.282-0.509,0.613-0.672,0.992c-0.163,0.38-0.244,0.787-0.244,1.22
			c0,0.434,0.081,0.84,0.244,1.22s0.388,0.71,0.672,0.992c0.285,0.282,0.617,0.504,0.997,0.667c0.38,0.164,0.786,0.245,1.22,0.245
			c0.392,0,0.753-0.063,1.086-0.191c0.332-0.127,0.646-0.318,0.943-0.574C218.092,75.149,218.287,75.084,218.513,75.078z"/>
		<path fill="#38A345" d="M230.138,72.915c0,1.389-0.486,2.563-1.46,3.524c-0.984,0.974-2.159,1.46-3.524,1.46
			c-1.377,0-2.552-0.486-3.524-1.46c-0.974-0.973-1.46-2.147-1.46-3.524s0.486-2.552,1.46-3.524c0.973-0.974,2.147-1.46,3.524-1.46
			c1.365,0,2.54,0.486,3.524,1.46c0.486,0.486,0.851,1.023,1.091,1.61C230.009,71.589,230.132,72.227,230.138,72.915z
			 M225.153,69.791c-0.439,0-0.849,0.083-1.229,0.249s-0.709,0.391-0.987,0.672c-0.279,0.282-0.5,0.613-0.663,0.992
			c-0.164,0.38-0.245,0.784-0.245,1.211c0,0.428,0.081,0.831,0.245,1.211c0.163,0.379,0.384,0.71,0.663,0.992
			c0.278,0.281,0.607,0.506,0.987,0.672s0.789,0.249,1.229,0.249c0.434,0,0.84-0.083,1.22-0.249s0.71-0.392,0.992-0.677
			c0.282-0.284,0.504-0.615,0.668-0.992c0.163-0.377,0.244-0.778,0.244-1.206c0-0.427-0.081-0.829-0.244-1.206
			c-0.164-0.377-0.386-0.708-0.668-0.992c-0.282-0.285-0.612-0.511-0.992-0.677S225.587,69.791,225.153,69.791z"/>
		<path fill="#38A345" d="M245.634,76.965c0,0.261-0.091,0.482-0.271,0.663c-0.182,0.181-0.399,0.271-0.654,0.271
			c-0.262,0-0.48-0.091-0.659-0.271c-0.178-0.181-0.267-0.402-0.267-0.663V71.9c0-0.285-0.055-0.555-0.165-0.81
			c-0.109-0.256-0.26-0.479-0.449-0.673c-0.189-0.192-0.414-0.345-0.672-0.458c-0.258-0.112-0.535-0.169-0.832-0.169
			c-0.291,0-0.564,0.057-0.819,0.169c-0.255,0.113-0.479,0.265-0.672,0.454c-0.192,0.189-0.344,0.412-0.454,0.667
			c-0.109,0.256-0.164,0.528-0.164,0.819v5.064c0,0.261-0.091,0.482-0.271,0.663c-0.182,0.181-0.399,0.271-0.654,0.271
			c-0.262,0-0.482-0.091-0.663-0.271c-0.182-0.181-0.271-0.402-0.271-0.663V71.9c0-0.291-0.057-0.563-0.169-0.819
			c-0.113-0.255-0.265-0.478-0.454-0.667c-0.19-0.189-0.413-0.341-0.668-0.454c-0.255-0.112-0.528-0.169-0.818-0.169
			c-0.291,0-0.564,0.055-0.819,0.165c-0.255,0.109-0.479,0.261-0.672,0.453c-0.192,0.193-0.344,0.417-0.454,0.672
			c-0.109,0.256-0.164,0.528-0.164,0.819v5.064c0,0.261-0.091,0.482-0.271,0.663c-0.182,0.181-0.399,0.271-0.654,0.271
			c-0.262,0-0.482-0.091-0.663-0.271c-0.182-0.181-0.271-0.402-0.271-0.663v-8.108c0-0.255,0.09-0.474,0.271-0.654
			c0.181-0.181,0.398-0.271,0.654-0.271c0.207,0,0.392,0.058,0.552,0.174c0.16,0.115,0.27,0.269,0.329,0.458
			c0.635-0.421,1.355-0.632,2.163-0.632c0.593,0,1.151,0.117,1.673,0.352c0.522,0.234,0.979,0.589,1.371,1.063
			c0.824-0.943,1.836-1.415,3.035-1.415c0.54,0,1.052,0.105,1.535,0.316c0.483,0.21,0.905,0.495,1.264,0.854
			c0.359,0.358,0.644,0.78,0.854,1.264s0.316,0.995,0.316,1.535V76.965z"/>
		<path fill="#38A345" d="M249.567,76.636c0,0.35-0.123,0.648-0.369,0.895s-0.545,0.369-0.895,0.369
			c-0.351,0-0.648-0.123-0.895-0.369s-0.369-0.545-0.369-0.895c0-0.351,0.123-0.648,0.369-0.895s0.544-0.369,0.895-0.369
			c0.35,0,0.648,0.123,0.895,0.369S249.567,76.285,249.567,76.636z"/>
		<path fill="#38A345" d="M253.237,77.899c-0.392,0-0.665-0.166-0.819-0.498l-3.756-8.171c-0.048-0.125-0.071-0.249-0.071-0.374
			s0.023-0.243,0.071-0.356c0.048-0.112,0.112-0.212,0.195-0.298s0.182-0.152,0.294-0.2c0.113-0.048,0.234-0.071,0.365-0.071
			c0.16,0,0.314,0.04,0.463,0.12s0.264,0.194,0.347,0.343l2.911,6.346l2.901-6.337c0.172-0.314,0.441-0.472,0.81-0.472
			c0.131,0,0.252,0.023,0.365,0.071c0.112,0.048,0.211,0.114,0.294,0.2s0.149,0.186,0.2,0.298c0.05,0.113,0.075,0.231,0.075,0.356
			c0,0.137-0.026,0.261-0.08,0.374l-3.747,8.171C253.89,77.733,253.616,77.899,253.237,77.899z"/>
		<path fill="#38A345" d="M260.403,68.848c0.789-0.611,1.718-0.917,2.786-0.917c0.623,0,1.215,0.122,1.775,0.365
			s1.055,0.574,1.481,0.992c0.428,0.418,0.766,0.911,1.015,1.478c0.25,0.566,0.374,1.17,0.374,1.812v4.388
			c0,0.261-0.09,0.482-0.271,0.663c-0.181,0.181-0.398,0.271-0.654,0.271c-0.261,0-0.481-0.091-0.663-0.271
			c-0.181-0.181-0.271-0.402-0.271-0.663v-4.388c0-0.38-0.074-0.739-0.222-1.077c-0.148-0.338-0.349-0.634-0.602-0.886
			c-0.252-0.252-0.547-0.452-0.886-0.601c-0.338-0.148-0.697-0.223-1.076-0.223c-0.386,0-0.747,0.072-1.082,0.218
			s-0.63,0.346-0.886,0.601c-0.255,0.256-0.455,0.553-0.601,0.891s-0.218,0.697-0.218,1.077v4.388c0,0.261-0.091,0.482-0.271,0.663
			c-0.182,0.181-0.399,0.271-0.654,0.271c-0.261,0-0.482-0.091-0.663-0.271s-0.271-0.402-0.271-0.663v-8.1
			c0-0.255,0.091-0.475,0.271-0.658c0.181-0.185,0.402-0.276,0.663-0.276c0.255,0,0.473,0.092,0.654,0.276
			C260.313,68.391,260.403,68.604,260.403,68.848z"/>
	</g>
</g>
<g>
	<circle fill="none" stroke="#055699" stroke-miterlimit="10" cx="84.789" cy="64.541" r="13.133"/>
	<circle fill="#055699" cx="79.505" cy="66.523" r="1.421"/>
	<circle fill="#055699" cx="85.849" cy="68.534" r="1.421"/>
	<circle fill="#055699" cx="89.799" cy="60.771" r="1.421"/>
	<g>
		<path fill="#055699" d="M77.628,67.335c-0.108-0.248-0.168-0.522-0.168-0.812c0-1.129,0.916-2.045,2.045-2.045
			c1.02,0,1.862,0.747,2.018,1.723l2.648,1.165c0.369-0.53,0.982-0.878,1.677-0.878c0.212,0,0.414,0.032,0.606,0.092l2.048-4.229
			c-0.457-0.375-0.748-0.944-0.748-1.58c0-1.13,0.917-2.046,2.046-2.046c0.686,0,1.29,0.338,1.661,0.855l2.969-0.928
			c-1.985-3.242-5.56-5.407-9.641-5.407c-6.238,0-11.296,5.058-11.296,11.296c0,2.11,0.58,4.085,1.589,5.775L77.628,67.335z"/>
		<path fill="#055699" d="M94.926,59.556l-3.097,0.969c0.01,0.08,0.016,0.163,0.016,0.246c0,1.13-0.915,2.046-2.045,2.046
			c-0.131,0-0.259-0.014-0.383-0.038l-2.1,4.335c0.356,0.368,0.577,0.869,0.577,1.421c0,1.13-0.917,2.045-2.047,2.045
			c-1.129,0-2.045-0.915-2.045-2.045c0-0.075,0.005-0.147,0.013-0.221l-2.402-1.057c-0.295,0.767-1.038,1.313-1.908,1.313
			c-0.468,0-0.896-0.158-1.241-0.422l-2.603,3.046c2.055,2.814,5.377,4.644,9.128,4.644c6.238,0,11.296-5.058,11.296-11.296
			C96.085,62.752,95.667,61.06,94.926,59.556z"/>
	</g>
</g>
</svg>
