<?xml version="1.0" encoding="utf-8"?>
<!-- Generator: Adobe Illustrator 16.0.0, SVG Export Plug-In . SVG Version: 6.00 Build 0)  -->
<!DOCTYPE svg PUBLIC "-//W3C//DTD SVG 1.1//EN" "http://www.w3.org/Graphics/SVG/1.1/DTD/svg11.dtd">
<svg version="1.1" id="Layer_1" xmlns="http://www.w3.org/2000/svg" xmlns:xlink="http://www.w3.org/1999/xlink" x="0px" y="0px"
	 width="272.945px" height="82.522px" viewBox="0 0 272.945 82.522" enable-background="new 0 0 272.945 82.522"
	 xml:space="preserve">
<g>
	<g>
		<rect x="65.889" y="22.522" fill="#FFFFFF" width="4.052" height="4.052"/>
		<rect x="71.123" y="22.522" fill="#FFFFFF" width="4.052" height="4.052"/>
		<rect x="65.889" y="28.2" fill="#FFFFFF" width="4.052" height="4.052"/>
		<rect x="71.123" y="28.2" fill="#FFFFFF" width="4.052" height="4.052"/>
	</g>
	<polygon fill="#FFFFFF" points="73.413,43.324 5.123,43.324 7.559,41.596 73.413,41.596 	"/>
	<polygon fill="#FFFFFF" points="65.915,4.585 69.371,8.355 15.491,42.757 6.538,42.284 	"/>
	<polygon fill="#FFFFFF" points="47.065,14.48 36.697,20.608 36.697,6.94 47.065,6.94 	"/>
	<polygon fill="#FFFFFF" points="70.313,3.484 118.066,16.837 153.253,42.599 124.509,42.599 	"/>
	<polygon fill="#FFFFFF" points="125.607,18.723 148.542,35.687 159.223,34.744 175.404,13.695 	"/>
	<polygon fill="#FFFFFF" points="173.989,22.021 177.13,18.408 195.509,43.227 169.591,43.227 168.884,42.521 189.069,42.521 	"/>
	<g>
		<path fill="#FFFFFF" d="M40.722,78.773c-0.9,0-1.673-0.318-2.291-0.948c-0.614-0.625-0.927-1.396-0.927-2.291V62.83
			c0-0.598-0.111-1.146-0.341-1.68c-0.229-0.534-0.547-1.01-0.942-1.411c-0.395-0.4-0.867-0.724-1.405-0.958
			c-0.532-0.231-1.113-0.35-1.73-0.35c-0.601,0-1.171,0.117-1.691,0.348c-0.538,0.238-1.017,0.562-1.418,0.957
			c-0.4,0.394-0.719,0.861-0.946,1.393c-0.229,0.531-0.34,1.088-0.34,1.701v12.704c0,0.897-0.317,1.672-0.943,2.297
			c-0.625,0.626-1.39,0.942-2.272,0.942c-0.898,0-1.674-0.316-2.298-0.942c-0.627-0.624-0.941-1.397-0.941-2.297V62.83
			c0-0.609-0.114-1.163-0.349-1.693c-0.236-0.535-0.559-1.009-0.953-1.402c-0.396-0.396-0.868-0.717-1.404-0.953
			c-0.522-0.23-1.092-0.348-1.692-0.348c-0.603,0-1.176,0.112-1.698,0.34c-0.532,0.229-1.008,0.549-1.408,0.949
			c-0.399,0.399-0.719,0.873-0.949,1.406c-0.228,0.531-0.339,1.088-0.339,1.701v12.704c0,0.897-0.318,1.673-0.945,2.297
			c-0.624,0.626-1.389,0.942-2.271,0.942c-0.898,0-1.672-0.316-2.297-0.942c-0.627-0.624-0.942-1.397-0.942-2.297V55.191
			c0-0.883,0.315-1.648,0.942-2.273c0.625-0.625,1.392-0.941,2.273-0.941c0.711,0,1.354,0.202,1.908,0.604
			c0.252,0.181,0.468,0.392,0.649,0.627c1.526-0.817,3.23-1.23,5.077-1.23c1.609,0,3.146,0.322,4.564,0.959
			c1.141,0.514,2.175,1.236,3.088,2.164c2.11-2.074,4.662-3.124,7.599-3.124c1.473,0,2.89,0.29,4.208,0.864
			c1.313,0.572,2.473,1.357,3.447,2.333c0.978,0.978,1.761,2.134,2.332,3.446c0.575,1.32,0.867,2.738,0.867,4.21v12.704
			c0,0.898-0.318,1.673-0.944,2.297C42.37,78.457,41.606,78.773,40.722,78.773z"/>
		<path fill="#FFFFFF" d="M43.045,75.534c0,0.655-0.229,1.211-0.682,1.663c-0.454,0.455-1.002,0.682-1.642,0.682
			c-0.655,0-1.205-0.227-1.653-0.682c-0.446-0.452-0.669-1.008-0.669-1.663V62.83c0-0.716-0.138-1.393-0.413-2.033
			c-0.275-0.64-0.65-1.201-1.127-1.686c-0.479-0.484-1.038-0.866-1.687-1.15c-0.647-0.281-1.344-0.424-2.089-0.424
			c-0.729,0-1.414,0.143-2.054,0.424c-0.641,0.284-1.203,0.662-1.685,1.141c-0.484,0.476-0.864,1.034-1.141,1.674
			c-0.275,0.641-0.413,1.324-0.413,2.056v12.704c0,0.654-0.228,1.211-0.682,1.663c-0.454,0.454-1.001,0.682-1.641,0.682
			c-0.656,0-1.211-0.228-1.663-0.682c-0.456-0.452-0.683-1.009-0.683-1.663V62.83c0-0.73-0.143-1.415-0.425-2.055
			c-0.282-0.641-0.662-1.199-1.139-1.676c-0.479-0.478-1.035-0.854-1.674-1.14c-0.642-0.282-1.325-0.424-2.057-0.424
			c-0.729,0-1.413,0.138-2.053,0.413c-0.643,0.275-1.203,0.654-1.688,1.139c-0.483,0.484-0.862,1.047-1.139,1.688
			c-0.276,0.64-0.413,1.324-0.413,2.055v12.704c0,0.655-0.228,1.211-0.681,1.663c-0.455,0.455-1.002,0.682-1.643,0.682
			c-0.654,0-1.21-0.227-1.664-0.682c-0.452-0.452-0.68-1.008-0.68-1.663V55.191c0-0.64,0.228-1.187,0.68-1.642
			c0.454-0.454,1-0.68,1.643-0.68c0.521,0,0.981,0.146,1.385,0.435c0.401,0.291,0.677,0.674,0.826,1.149
			c1.592-1.056,3.4-1.584,5.425-1.584c1.488,0,2.889,0.293,4.199,0.882c1.309,0.589,2.457,1.479,3.438,2.668
			c2.068-2.365,4.605-3.55,7.613-3.55c1.355,0,2.641,0.264,3.854,0.791c1.213,0.528,2.269,1.243,3.171,2.144
			c0.898,0.901,1.613,1.959,2.144,3.172c0.528,1.213,0.793,2.498,0.793,3.854v12.704H43.045z"/>
		<path fill="#FFFFFF" d="M67.985,78.773c-0.919,0-1.692-0.316-2.296-0.942c-0.232-0.241-0.42-0.502-0.565-0.783
			c-0.786,0.487-1.605,0.869-2.449,1.138c-1.228,0.391-2.572,0.59-4,0.59c-1.711,0-3.349-0.338-4.868-1.004
			c-1.512-0.658-2.851-1.566-3.981-2.697c-1.132-1.133-2.039-2.473-2.699-3.98c-0.665-1.523-1.002-3.16-1.002-4.869V55.191
			c0-0.883,0.318-1.648,0.945-2.273c0.624-0.625,1.396-0.941,2.295-0.941c0.883,0,1.648,0.316,2.274,0.941
			c0.626,0.626,0.941,1.393,0.941,2.273v11.031c0,0.842,0.161,1.637,0.476,2.37c0.316,0.739,0.757,1.394,1.308,1.942
			c0.548,0.549,1.201,0.988,1.941,1.307c0.73,0.314,1.527,0.475,2.37,0.475c0.826,0,1.617-0.159,2.349-0.474
			c0.739-0.317,1.396-0.762,1.954-1.317c0.558-0.558,1-1.213,1.317-1.945c0.314-0.725,0.475-1.518,0.475-2.357V55.191
			c0-0.883,0.316-1.648,0.941-2.273c0.626-0.625,1.397-0.941,2.298-0.941c0.884,0,1.646,0.316,2.273,0.941
			c0.627,0.626,0.942,1.393,0.942,2.273v20.365c0,0.883-0.315,1.648-0.942,2.273C69.655,78.457,68.884,78.773,67.985,78.773z"/>
		<path fill="#FFFFFF" d="M67.985,77.879c-0.67,0-1.221-0.225-1.653-0.67c-0.431-0.445-0.653-0.988-0.669-1.629
			c-1.025,0.803-2.113,1.389-3.259,1.751c-1.147,0.366-2.391,0.548-3.729,0.548c-1.594,0-3.098-0.309-4.511-0.926
			c-1.414-0.618-2.649-1.455-3.706-2.514c-1.058-1.057-1.896-2.291-2.513-3.707c-0.617-1.412-0.927-2.916-0.927-4.51V55.191
			c0-0.64,0.228-1.187,0.681-1.642c0.455-0.454,1.009-0.68,1.664-0.68c0.641,0,1.187,0.226,1.642,0.68
			c0.453,0.455,0.681,1.002,0.681,1.642v11.031c0,0.969,0.183,1.875,0.549,2.725c0.364,0.849,0.862,1.589,1.495,2.223
			c0.633,0.632,1.373,1.131,2.222,1.495s1.757,0.547,2.725,0.547c0.952,0,1.854-0.183,2.701-0.547
			c0.849-0.364,1.594-0.868,2.234-1.508c0.638-0.64,1.142-1.38,1.506-2.222s0.547-1.744,0.547-2.713V55.191
			c0-0.64,0.229-1.187,0.683-1.642c0.452-0.454,1.009-0.68,1.663-0.68c0.641,0,1.188,0.226,1.641,0.68
			c0.453,0.455,0.682,1.002,0.682,1.642v20.365c0,0.641-0.229,1.188-0.682,1.641C69.195,77.652,68.64,77.879,67.985,77.879z"/>
		<path fill="#FFFFFF" d="M123.383,78.773c-0.896,0-1.671-0.316-2.295-0.942c-0.627-0.624-0.943-1.397-0.943-2.297V64.525
			c0-0.822-0.162-1.611-0.482-2.342c-0.325-0.742-0.769-1.397-1.319-1.949c-0.55-0.551-1.208-0.995-1.948-1.319
			c-0.73-0.319-1.52-0.481-2.344-0.481c-0.84,0-1.633,0.158-2.355,0.471c-0.733,0.32-1.389,0.765-1.944,1.32
			c-0.558,0.558-0.999,1.213-1.316,1.953c-0.315,0.732-0.476,1.523-0.476,2.35v11.008c0,0.898-0.317,1.672-0.944,2.297
			c-0.624,0.626-1.389,0.943-2.273,0.943c-0.897,0-1.671-0.317-2.295-0.943c-0.627-0.624-0.942-1.398-0.942-2.297v-20.32
			c0-0.881,0.315-1.646,0.938-2.277c0.626-0.64,1.399-0.96,2.3-0.96c0.886,0,1.652,0.321,2.278,0.958
			c0.239,0.244,0.435,0.504,0.582,0.779c1.89-1.154,4.054-1.738,6.451-1.738c1.679,0,3.297,0.333,4.812,0.989
			c1.5,0.649,2.842,1.55,3.988,2.669c1.147,1.127,2.068,2.469,2.737,3.988c0.673,1.527,1.015,3.178,1.015,4.902v11.009
			c0,0.897-0.317,1.672-0.944,2.297C125.033,78.457,124.267,78.773,123.383,78.773z"/>
		<path fill="#FFFFFF" d="M107.063,55.171c1.979-1.532,4.308-2.3,6.986-2.3c1.564,0,3.049,0.305,4.456,0.914
			c1.404,0.611,2.645,1.441,3.718,2.488c1.069,1.053,1.92,2.287,2.545,3.709c0.626,1.422,0.938,2.937,0.938,4.543v11.009
			c0,0.655-0.228,1.211-0.682,1.663c-0.455,0.455-1.001,0.682-1.644,0.682c-0.653,0-1.208-0.227-1.662-0.682
			c-0.454-0.452-0.683-1.008-0.683-1.663V64.525c0-0.953-0.185-1.854-0.558-2.701c-0.373-0.85-0.874-1.59-1.508-2.223
			c-0.632-0.633-1.371-1.135-2.223-1.506c-0.847-0.373-1.749-0.56-2.701-0.56c-0.968,0-1.872,0.185-2.713,0.546
			c-0.84,0.366-1.581,0.868-2.222,1.509c-0.641,0.64-1.142,1.384-1.507,2.232c-0.366,0.849-0.546,1.747-0.546,2.702v11.008
			c0,0.654-0.229,1.211-0.683,1.662c-0.456,0.455-1.002,0.683-1.643,0.683c-0.655,0-1.208-0.228-1.662-0.683
			c-0.455-0.451-0.681-1.008-0.681-1.662V55.215c0-0.64,0.226-1.191,0.681-1.65c0.454-0.461,1.007-0.692,1.662-0.692
			c0.641,0,1.187,0.231,1.643,0.692C106.834,54.023,107.063,54.561,107.063,55.171z"/>
		<path fill="#FFFFFF" d="M150.18,78.773c-0.9,0-1.675-0.316-2.299-0.942c-0.627-0.624-0.941-1.397-0.941-2.297V64.525
			c0-0.822-0.164-1.611-0.484-2.342c-0.325-0.742-0.769-1.397-1.318-1.949c-0.551-0.551-1.208-0.995-1.949-1.319
			c-0.729-0.319-1.518-0.481-2.34-0.481c-0.844,0-1.637,0.158-2.357,0.471c-0.733,0.32-1.389,0.765-1.946,1.32
			c-0.556,0.558-1,1.213-1.316,1.953c-0.315,0.732-0.476,1.523-0.476,2.35v11.008c0,0.898-0.314,1.672-0.941,2.297
			c-0.627,0.626-1.393,0.943-2.274,0.943c-0.898,0-1.671-0.317-2.298-0.943c-0.624-0.624-0.941-1.398-0.941-2.297v-20.32
			c0-0.881,0.315-1.646,0.938-2.277c0.626-0.64,1.399-0.96,2.302-0.96c0.886,0,1.652,0.321,2.279,0.958
			c0.239,0.244,0.432,0.504,0.579,0.779c1.889-1.154,4.054-1.738,6.454-1.738c1.678,0,3.297,0.333,4.809,0.989
			c1.5,0.649,2.841,1.55,3.987,2.669c1.15,1.127,2.069,2.469,2.738,3.988c0.673,1.527,1.015,3.178,1.015,4.902v11.009
			c0,0.897-0.317,1.672-0.942,2.297C151.827,78.457,151.063,78.773,150.18,78.773z"/>
		<path fill="#FFFFFF" d="M133.855,55.171c1.979-1.532,4.311-2.3,6.991-2.3c1.562,0,3.045,0.305,4.451,0.914
			c1.408,0.611,2.646,1.441,3.719,2.488c1.071,1.053,1.923,2.287,2.547,3.709s0.938,2.937,0.938,4.543v11.009
			c0,0.655-0.228,1.211-0.682,1.663c-0.453,0.455-1.001,0.682-1.64,0.682c-0.655,0-1.212-0.227-1.664-0.682
			c-0.456-0.452-0.683-1.008-0.683-1.663V64.525c0-0.953-0.188-1.854-0.558-2.701c-0.372-0.85-0.876-1.59-1.507-2.223
			c-0.635-0.633-1.375-1.135-2.223-1.506c-0.851-0.373-1.75-0.56-2.701-0.56c-0.969,0-1.872,0.185-2.714,0.546
			c-0.842,0.366-1.583,0.868-2.224,1.509c-0.639,0.64-1.142,1.384-1.505,2.232c-0.365,0.849-0.549,1.747-0.549,2.702v11.008
			c0,0.654-0.229,1.211-0.682,1.662c-0.454,0.455-1.002,0.683-1.641,0.683c-0.655,0-1.21-0.228-1.664-0.683
			c-0.453-0.451-0.681-1.008-0.681-1.662V55.215c0-0.64,0.228-1.191,0.681-1.65c0.454-0.461,1.009-0.692,1.664-0.692
			c0.639,0,1.187,0.231,1.641,0.692C133.628,54.023,133.855,54.561,133.855,55.171z"/>
		<path fill="#FFFFFF" d="M176.952,78.773c-0.886,0-1.648-0.316-2.276-0.943c-0.625-0.624-0.941-1.396-0.941-2.296V64.57
			c0-0.823-0.161-1.611-0.482-2.344c-0.325-0.74-0.769-1.396-1.32-1.947c-0.552-0.551-1.206-0.995-1.947-1.318
			c-0.73-0.322-1.52-0.484-2.343-0.484c-0.841,0-1.634,0.16-2.356,0.475c-0.733,0.316-1.387,0.763-1.944,1.318
			c-0.558,0.557-0.999,1.213-1.316,1.953c-0.315,0.731-0.476,1.522-0.476,2.348v10.965c0,0.898-0.317,1.672-0.943,2.297
			c-0.625,0.626-1.398,0.943-2.296,0.943c-0.884,0-1.649-0.317-2.273-0.943c-0.627-0.624-0.942-1.398-0.942-2.297V42.066
			c0-0.898,0.315-1.67,0.942-2.297c0.626-0.625,1.391-0.943,2.273-0.943c0.881,0,1.646,0.318,2.271,0.942
			c0.622,0.622,0.947,1.388,0.969,2.277v11.503c1.805-1.017,3.847-1.529,6.094-1.529c1.679,0,3.298,0.334,4.812,0.99
			c1.503,0.651,2.842,1.55,3.988,2.671c1.147,1.127,2.068,2.467,2.735,3.987c0.675,1.528,1.017,3.179,1.017,4.901v10.965
			c-0.021,0.912-0.346,1.678-0.968,2.297C178.602,78.457,177.835,78.773,176.952,78.773z"/>
		<path fill="#FFFFFF" d="M160.652,75.534c0,0.655-0.229,1.211-0.682,1.663c-0.456,0.455-1.01,0.682-1.664,0.682
			c-0.642,0-1.188-0.227-1.644-0.682c-0.453-0.452-0.679-1.008-0.679-1.663V42.066c0-0.655,0.226-1.21,0.679-1.663
			c0.456-0.453,1.002-0.682,1.644-0.682c0.639,0,1.185,0.229,1.641,0.682c0.455,0.453,0.688,1.008,0.705,1.663v13.148
			c1.979-1.532,4.308-2.3,6.987-2.3c1.563,0,3.048,0.305,4.456,0.915c1.404,0.61,2.644,1.44,3.717,2.489
			c1.069,1.051,1.92,2.285,2.545,3.707c0.624,1.422,0.938,2.938,0.938,4.543v10.965c-0.015,0.654-0.247,1.211-0.703,1.662
			c-0.452,0.455-0.999,0.683-1.64,0.683c-0.642,0-1.188-0.228-1.643-0.683c-0.454-0.451-0.683-1.008-0.683-1.662V64.57
			c0-0.951-0.185-1.854-0.558-2.701c-0.37-0.85-0.873-1.59-1.508-2.223c-0.634-0.633-1.371-1.135-2.222-1.506
			c-0.848-0.373-1.75-0.559-2.701-0.559c-0.969,0-1.87,0.182-2.714,0.546c-0.84,0.365-1.581,0.867-2.222,1.507
			c-0.641,0.641-1.142,1.385-1.507,2.233c-0.366,0.849-0.546,1.75-0.546,2.7v10.966H160.652z"/>
		<path fill="#FFFFFF" d="M205.488,78.773c-0.9,0-1.672-0.316-2.298-0.943c-0.335-0.336-0.584-0.712-0.741-1.126
			c-0.835,0.53-1.718,0.968-2.639,1.302c-1.403,0.51-2.918,0.77-4.506,0.77c-3.683,0-6.869-1.32-9.474-3.926
			c-2.605-2.604-3.926-5.791-3.926-9.476c0-3.683,1.319-6.87,3.926-9.476c2.604-2.604,5.791-3.922,9.474-3.922
			c3.652,0,6.839,1.318,9.474,3.918c2.605,2.609,3.926,5.797,3.926,9.479v10.184c0,0.883-0.314,1.648-0.941,2.273
			C207.135,78.457,206.371,78.773,205.488,78.773z M195.305,58.434c-0.974,0-1.888,0.185-2.721,0.551
			c-0.848,0.369-1.586,0.871-2.203,1.494c-0.616,0.623-1.114,1.369-1.477,2.213c-0.36,0.836-0.543,1.738-0.543,2.684
			s0.183,1.85,0.543,2.684c0.363,0.849,0.859,1.592,1.477,2.215c0.615,0.623,1.355,1.125,2.203,1.496
			c0.833,0.363,1.747,0.549,2.721,0.549c0.959,0,1.867-0.186,2.698-0.549c0.849-0.371,1.59-0.877,2.215-1.508
			c0.627-0.633,1.128-1.378,1.49-2.216c0.356-0.829,0.539-1.726,0.539-2.671c0-0.943-0.183-1.842-0.539-2.67
			c-0.362-0.837-0.863-1.582-1.49-2.215c-0.625-0.631-1.366-1.137-2.215-1.506C197.173,58.617,196.264,58.434,195.305,58.434z"/>
		<path fill="#FFFFFF" d="M203.143,75.559v-0.449c-1.115,0.894-2.328,1.58-3.64,2.057c-1.311,0.477-2.708,0.714-4.198,0.714
			c-3.451,0-6.399-1.221-8.843-3.662c-2.438-2.44-3.662-5.388-3.662-8.843c0-3.453,1.224-6.4,3.662-8.841
			c2.442-2.442,5.392-3.662,8.843-3.662c3.426,0,6.37,1.22,8.845,3.662c2.439,2.44,3.66,5.388,3.66,8.841v10.184
			c0,0.641-0.227,1.188-0.683,1.641c-0.453,0.455-1.001,0.682-1.64,0.682c-0.655,0-1.211-0.227-1.664-0.682
			C203.371,76.745,203.143,76.197,203.143,75.559z M195.305,57.537c-1.103,0-2.13,0.209-3.081,0.625
			c-0.951,0.417-1.777,0.98-2.479,1.688c-0.7,0.707-1.254,1.534-1.664,2.488c-0.411,0.952-0.615,1.967-0.615,3.036
			c0,1.071,0.204,2.084,0.615,3.037c0.41,0.953,0.964,1.784,1.664,2.489c0.7,0.707,1.526,1.27,2.479,1.688
			c0.951,0.416,1.979,0.624,3.081,0.624c1.088,0,2.107-0.208,3.06-0.624c0.952-0.418,1.783-0.982,2.49-1.697s1.266-1.545,1.676-2.49
			c0.408-0.944,0.612-1.953,0.612-3.025c0-1.07-0.204-2.079-0.612-3.025c-0.41-0.943-0.969-1.774-1.676-2.488
			c-0.707-0.715-1.538-1.28-2.49-1.697C197.413,57.746,196.393,57.537,195.305,57.537z"/>
	</g>
	<g>
		<path fill="#FFFFFF" d="M212.695,76.636c0,0.351-0.123,0.648-0.369,0.896c-0.246,0.246-0.545,0.369-0.895,0.369
			c-0.352,0-0.648-0.123-0.896-0.369s-0.369-0.545-0.369-0.896s0.123-0.647,0.369-0.895s0.544-0.369,0.896-0.369
			c0.35,0,0.647,0.123,0.895,0.369C212.573,75.986,212.695,76.285,212.695,76.636z"/>
		<path fill="#FFFFFF" d="M220.404,75.078c0.268,0,0.488,0.088,0.663,0.263c0.176,0.175,0.263,0.396,0.263,0.663
			c0,0.262-0.098,0.489-0.293,0.686c-0.92,0.808-2.003,1.211-3.249,1.211c-1.377,0-2.552-0.486-3.523-1.461
			c-0.975-0.973-1.46-2.146-1.46-3.523s0.485-2.552,1.46-3.523c0.973-0.975,2.146-1.461,3.523-1.461
			c1.252,0,2.335,0.403,3.249,1.211c0.213,0.189,0.32,0.424,0.32,0.703c0,0.268-0.088,0.489-0.263,0.668
			c-0.176,0.178-0.396,0.268-0.663,0.268c-0.227,0-0.429-0.071-0.605-0.215c-0.303-0.254-0.62-0.447-0.952-0.578
			c-0.333-0.131-0.693-0.195-1.086-0.195c-0.434,0-0.84,0.082-1.22,0.245s-0.712,0.386-0.997,0.667
			c-0.284,0.281-0.509,0.613-0.672,0.992c-0.163,0.38-0.244,0.787-0.244,1.22c0,0.435,0.081,0.84,0.244,1.22
			c0.163,0.381,0.388,0.711,0.672,0.992c0.285,0.282,0.617,0.504,0.997,0.667c0.38,0.164,0.786,0.245,1.22,0.245
			c0.393,0,0.753-0.063,1.086-0.191c0.332-0.127,0.646-0.317,0.943-0.574C219.983,75.148,220.179,75.084,220.404,75.078z"/>
		<path fill="#FFFFFF" d="M232.029,72.915c0,1.39-0.486,2.563-1.46,3.524c-0.984,0.974-2.159,1.459-3.524,1.459
			c-1.377,0-2.552-0.485-3.523-1.459c-0.975-0.974-1.46-2.147-1.46-3.524s0.485-2.552,1.46-3.524
			c0.973-0.974,2.146-1.459,3.523-1.459c1.365,0,2.54,0.485,3.524,1.459c0.486,0.486,0.851,1.023,1.091,1.61
			C231.9,71.589,232.023,72.227,232.029,72.915z M227.045,69.791c-0.438,0-0.849,0.083-1.229,0.249s-0.709,0.392-0.987,0.672
			c-0.279,0.282-0.5,0.613-0.663,0.992c-0.164,0.38-0.245,0.784-0.245,1.211c0,0.428,0.081,0.831,0.245,1.211
			c0.163,0.379,0.384,0.71,0.663,0.992c0.278,0.28,0.607,0.506,0.987,0.672s0.789,0.249,1.229,0.249c0.435,0,0.84-0.083,1.221-0.249
			c0.38-0.166,0.71-0.392,0.991-0.677c0.282-0.284,0.505-0.615,0.668-0.992s0.244-0.778,0.244-1.206
			c0-0.427-0.081-0.829-0.244-1.206s-0.386-0.708-0.668-0.992c-0.281-0.285-0.611-0.511-0.991-0.677
			C227.885,69.874,227.479,69.791,227.045,69.791z"/>
		<path fill="#FFFFFF" d="M247.525,76.965c0,0.262-0.091,0.482-0.271,0.663c-0.182,0.181-0.398,0.271-0.653,0.271
			c-0.263,0-0.48-0.09-0.659-0.271c-0.178-0.181-0.268-0.401-0.268-0.663V71.9c0-0.285-0.055-0.555-0.165-0.811
			c-0.108-0.256-0.26-0.479-0.448-0.673c-0.189-0.192-0.414-0.345-0.672-0.458c-0.259-0.111-0.535-0.169-0.832-0.169
			c-0.291,0-0.564,0.058-0.819,0.169c-0.255,0.113-0.479,0.266-0.672,0.454s-0.344,0.412-0.454,0.667
			c-0.109,0.256-0.164,0.527-0.164,0.818v5.064c0,0.262-0.091,0.482-0.271,0.663c-0.182,0.181-0.398,0.271-0.653,0.271
			c-0.263,0-0.482-0.09-0.663-0.271c-0.183-0.181-0.271-0.401-0.271-0.663V71.9c0-0.291-0.057-0.563-0.169-0.819
			c-0.112-0.255-0.265-0.478-0.454-0.667s-0.412-0.341-0.668-0.454c-0.255-0.112-0.527-0.169-0.817-0.169
			c-0.291,0-0.564,0.055-0.819,0.165c-0.255,0.108-0.479,0.261-0.672,0.453c-0.192,0.192-0.344,0.417-0.454,0.672
			c-0.109,0.256-0.164,0.528-0.164,0.819v5.063c0,0.261-0.091,0.481-0.271,0.663c-0.183,0.182-0.399,0.271-0.654,0.271
			c-0.262,0-0.482-0.092-0.663-0.271c-0.182-0.182-0.271-0.402-0.271-0.663v-8.108c0-0.254,0.09-0.474,0.271-0.653
			c0.181-0.181,0.398-0.271,0.654-0.271c0.207,0,0.392,0.058,0.552,0.174c0.16,0.115,0.27,0.269,0.329,0.457
			c0.635-0.42,1.354-0.631,2.163-0.631c0.593,0,1.15,0.116,1.673,0.352c0.521,0.234,0.979,0.589,1.371,1.063
			c0.824-0.943,1.836-1.414,3.035-1.414c0.54,0,1.052,0.104,1.535,0.315c0.482,0.21,0.904,0.495,1.264,0.854
			c0.358,0.357,0.644,0.779,0.854,1.264s0.316,0.994,0.316,1.535v5.064H247.525z"/>
		<path fill="#FFFFFF" d="M251.459,76.636c0,0.351-0.123,0.648-0.369,0.896c-0.246,0.246-0.545,0.369-0.895,0.369
			c-0.352,0-0.648-0.123-0.896-0.369s-0.368-0.545-0.368-0.896s0.123-0.647,0.368-0.895c0.246-0.247,0.544-0.369,0.896-0.369
			c0.35,0,0.647,0.123,0.895,0.369C251.337,75.986,251.459,76.285,251.459,76.636z"/>
		<path fill="#FFFFFF" d="M255.129,77.898c-0.392,0-0.665-0.166-0.818-0.498l-3.756-8.17c-0.049-0.125-0.071-0.25-0.071-0.375
			s0.022-0.242,0.071-0.355c0.048-0.111,0.111-0.212,0.194-0.298s0.183-0.152,0.294-0.2c0.113-0.048,0.234-0.07,0.365-0.07
			c0.16,0,0.314,0.039,0.463,0.119c0.149,0.08,0.265,0.194,0.347,0.344l2.911,6.346l2.901-6.338c0.172-0.313,0.441-0.471,0.81-0.471
			c0.132,0,0.252,0.022,0.365,0.07c0.112,0.048,0.211,0.114,0.294,0.2s0.149,0.187,0.2,0.298c0.05,0.113,0.075,0.23,0.075,0.355
			c0,0.138-0.026,0.262-0.08,0.375l-3.747,8.17C255.781,77.732,255.508,77.898,255.129,77.898z"/>
		<path fill="#FFFFFF" d="M262.295,68.848c0.789-0.611,1.719-0.916,2.786-0.916c0.623,0,1.215,0.121,1.775,0.364
			c0.56,0.243,1.055,0.574,1.48,0.992c0.429,0.418,0.767,0.911,1.016,1.478c0.25,0.566,0.374,1.17,0.374,1.813v4.388
			c0,0.261-0.09,0.482-0.271,0.663c-0.181,0.182-0.397,0.271-0.654,0.271c-0.261,0-0.48-0.092-0.662-0.271
			c-0.182-0.181-0.271-0.402-0.271-0.663v-4.388c0-0.38-0.074-0.739-0.222-1.077c-0.148-0.338-0.35-0.634-0.603-0.886
			c-0.252-0.252-0.547-0.452-0.886-0.602c-0.338-0.147-0.697-0.223-1.076-0.223c-0.386,0-0.747,0.072-1.082,0.218
			s-0.63,0.347-0.886,0.601c-0.255,0.257-0.455,0.554-0.601,0.892c-0.146,0.338-0.219,0.697-0.219,1.077v4.388
			c0,0.261-0.091,0.482-0.271,0.663c-0.182,0.182-0.399,0.271-0.654,0.271c-0.261,0-0.481-0.092-0.663-0.271
			c-0.181-0.18-0.271-0.402-0.271-0.663v-8.1c0-0.255,0.091-0.476,0.271-0.658c0.182-0.185,0.402-0.276,0.663-0.276
			c0.255,0,0.474,0.092,0.654,0.276C262.204,68.391,262.295,68.604,262.295,68.848z"/>
	</g>
	<g>
		<g>
			<path fill="#FFFFFF" d="M86.681,78.174c-7.519,0-13.634-6.115-13.634-13.633s6.115-13.633,13.634-13.633
				c7.518,0,13.633,6.115,13.633,13.633S94.198,78.174,86.681,78.174z M86.681,51.908c-6.967,0-12.634,5.667-12.634,12.633
				s5.667,12.633,12.634,12.633c6.966,0,12.633-5.667,12.633-12.633S93.646,51.908,86.681,51.908z"/>
		</g>
		<circle fill="#FFFFFF" cx="81.397" cy="66.522" r="1.421"/>
		<circle fill="#FFFFFF" cx="87.74" cy="68.534" r="1.421"/>
		<circle fill="#FFFFFF" cx="91.691" cy="60.771" r="1.421"/>
		<g>
			<path fill="#FFFFFF" d="M79.52,67.335c-0.108-0.248-0.168-0.522-0.168-0.812c0-1.129,0.916-2.045,2.045-2.045
				c1.02,0,1.861,0.746,2.018,1.723l2.648,1.165c0.369-0.53,0.981-0.878,1.677-0.878c0.212,0,0.414,0.031,0.606,0.092l2.048-4.229
				c-0.457-0.375-0.748-0.944-0.748-1.58c0-1.131,0.917-2.047,2.046-2.047c0.686,0,1.29,0.338,1.661,0.855l2.969-0.928
				c-1.985-3.242-5.56-5.407-9.641-5.407c-6.238,0-11.297,5.058-11.297,11.296c0,2.109,0.58,4.085,1.59,5.775L79.52,67.335z"/>
			<path fill="#FFFFFF" d="M96.817,59.557l-3.097,0.969c0.01,0.08,0.016,0.162,0.016,0.246c0,1.129-0.915,2.045-2.045,2.045
				c-0.131,0-0.259-0.014-0.383-0.037l-2.101,4.335c0.356,0.368,0.577,0.868,0.577,1.421c0,1.13-0.917,2.045-2.047,2.045
				c-1.129,0-2.045-0.915-2.045-2.045c0-0.075,0.005-0.146,0.013-0.221l-2.401-1.058c-0.296,0.767-1.038,1.313-1.908,1.313
				c-0.468,0-0.896-0.158-1.241-0.422l-2.603,3.045c2.055,2.814,5.377,4.645,9.128,4.645c6.237,0,11.296-5.059,11.296-11.296
				C97.977,62.752,97.559,61.061,96.817,59.557z"/>
		</g>
	</g>
</g>
</svg>
